<?xml version="1.0" encoding="utf-8"?>
<!-- Generator: Adobe Illustrator 20.1.0, SVG Export Plug-In . SVG Version: 6.00 Build 0)  -->
<svg version="1.1" id="Stockholm" xmlns="http://www.w3.org/2000/svg" xmlns:xlink="http://www.w3.org/1999/xlink" x="0px" y="0px"
	 viewBox="0 0 360 360" style="enable-background:new 0 0 360 360;" xml:space="preserve">
<style type="text/css">
	.st0{fill:#FFFFFF;}
	.st1{fill:none;stroke:#000000;stroke-width:2;stroke-miterlimit:10;}
	.st2{fill:none;stroke:#000000;stroke-linecap:round;stroke-miterlimit:10;}
	.st3{fill:none;stroke:#000000;stroke-linecap:round;stroke-linejoin:round;stroke-miterlimit:10;}
	.st4{fill:#FFFFFF;stroke:#000000;stroke-miterlimit:10;}
	.st5{fill:none;stroke:#000000;stroke-linejoin:round;stroke-miterlimit:10;}
	.st6{clip-path:url(#SVGID_2_);fill:none;stroke:#000000;stroke-linejoin:round;stroke-miterlimit:10;}
	.st7{fill:none;stroke:#000000;stroke-width:2.8836;stroke-linecap:round;stroke-miterlimit:10;}
	.st8{fill:none;stroke:#000000;stroke-width:2.5042;stroke-linecap:round;stroke-linejoin:round;}
	.st9{fill:none;stroke:#000000;stroke-width:0.626;stroke-linecap:round;stroke-linejoin:round;}
	.st10{fill:none;stroke:#000000;stroke-width:3;stroke-miterlimit:10;}
	.st11{fill:none;stroke:#000000;stroke-width:2;}
	.st12{stroke:#000000;stroke-width:2;stroke-miterlimit:10;}
	.st13{fill:none;}
	.st14{font-family:'Montserrat-Regular';}
	.st15{font-size:20px;}
	.st16{letter-spacing:4;}
	.st17{font-size:72px;}
	.st18{fill:none;stroke:#000000;stroke-miterlimit:10;}
	.st19{fill:none;stroke:#000000;stroke-width:1.5;stroke-linecap:round;stroke-linejoin:round;}
	.st20{fill:none;stroke:#000000;stroke-width:3.5951;stroke-linecap:round;stroke-linejoin:round;}
	.st21{fill:none;stroke:#000000;stroke-width:0.8988;stroke-linecap:round;stroke-linejoin:round;}
</style>
<g id="Backgrounds">
	<rect x="-380" y="-760" class="st0" width="360" height="360"/>
	<rect x="-380" y="-380" class="st0" width="360" height="360"/>
	<rect x="-380" class="st0" width="360" height="360"/>
	<rect class="st0" width="360" height="360"/>
	<rect y="-380" class="st0" width="360" height="360"/>
	<rect x="380" y="-380" class="st0" width="360" height="360"/>
	<rect x="760" y="-380" class="st0" width="360" height="360"/>
	<rect x="1140" y="-380" class="st0" width="360" height="360"/>
	<rect y="-760" class="st0" width="360" height="360"/>
	<rect x="380" y="-760" class="st0" width="360" height="360"/>
	<rect x="760" y="-760" class="st0" width="360" height="360"/>
	<rect x="1140" y="-760" class="st0" width="360" height="360"/>
	<rect x="380" class="st0" width="360" height="360"/>
	<rect x="760" class="st0" width="360" height="360"/>
	<rect x="1140" class="st0" width="360" height="360"/>
	<rect x="-380" y="380" class="st0" width="360" height="360"/>
	<rect x="-380" y="760" class="st0" width="360" height="360"/>
	<rect y="380" class="st0" width="360" height="360"/>
	<rect x="380" y="380" class="st0" width="360" height="360"/>
	<rect x="760" y="380" class="st0" width="360" height="360"/>
	<rect x="1140" y="380" class="st0" width="360" height="360"/>
	<rect y="760" class="st0" width="360" height="360"/>
	<rect x="380" y="760" class="st0" width="360" height="360"/>
	<rect x="760" y="760" class="st0" width="360" height="360"/>
	<rect x="1140" y="760" class="st0" width="360" height="360"/>
</g>
<g id="Stockholm_x5F_25">
	<polyline class="st1" points="1260,960 1220,960 1220,920 1260,920 	"/>
	<polyline class="st1" points="1380,920 1420,920 1420,960 1380,960 	"/>
	<rect x="1180" y="955" class="st13" width="280" height="10"/>
	<text transform="matrix(1 0 0 1 1277.1123 961.2598)" class="st14" style="font-size:6px; letter-spacing:3;">INTERIOR DESIGN</text>
	<rect x="1180" y="930" class="st13" width="280" height="30"/>
	<text transform="matrix(1 0 0 1 1254.9854 947.04)" style="font-family:'Montserrat-Bold'; font-size:24px;">STOCKHOLM</text>
	<rect x="1180" y="915" class="st13" width="280" height="10"/>
	<text transform="matrix(1 0 0 1 1292.3223 921.2598)" class="st14" style="font-size:6px; letter-spacing:3;">SINCE 1985</text>
</g>
<g id="Stockholm_x5F_24">
	<line class="st2" x1="1005" y1="965" x2="990" y2="965"/>
	<rect x="800" y="960" class="st13" width="280" height="10"/>
	<text transform="matrix(1 0 0 1 905.0283 967.6797)" class="st14 st16" style="font-size:8px;">FURNITURE</text>
	<line class="st2" x1="1032.5" y1="975" x2="1017.5" y2="975"/>
	<rect x="800" y="930" class="st13" width="280" height="30"/>
	<text transform="matrix(1 0 0 1 893.5371 947.04)" style="font-family:'Montserrat-Bold'; font-size:24px;">Seth Keel</text>
	<g id="Icon_8_">
		<polyline class="st2" points="922.9,905.9 930,905.9 930,912.9 		"/>
		<polyline class="st2" points="950,912.9 950,905.9 957.1,905.9 		"/>
		<polyline class="st2" points="957.1,885.9 950,885.9 950,878.8 		"/>
		<polyline class="st2" points="930,878.8 930,885.9 922.9,885.9 		"/>
		<line class="st2" x1="930" y1="885.9" x2="950" y2="905.9"/>
		<line class="st2" x1="930" y1="905.9" x2="950" y2="885.9"/>
		<polyline class="st2" points="935,915 940,910 945,915 		"/>
		<polyline class="st2" points="959.1,900.9 954.1,895.9 959.1,890.9 		"/>
		<polyline class="st2" points="945,876.7 940,881.7 935,876.7 		"/>
		<polyline class="st2" points="920.9,890.9 925.9,895.9 920.9,900.9 		"/>
		<line class="st2" x1="925.9" y1="895.9" x2="954.1" y2="895.9"/>
		<line class="st2" x1="940" y1="910" x2="940" y2="881.7"/>
	</g>
</g>
<g id="Stockholm_x5F_23">
	<rect x="420" y="985" class="st13" width="280" height="55"/>
	<text transform="matrix(1 0 0 1 525.2168 990.6797)" style="font-family:'Lato-Medium'; font-size:8px;">INTERIOR DESIGN</text>
	<line class="st3" x1="550" y1="975" x2="570" y2="975"/>
	<rect x="420" y="920" class="st13" width="280" height="55"/>
	<text transform="matrix(1 0 0 1 491.6025 935.6201)"><tspan x="0" y="0" style="font-family:'Lato-Light'; font-size:22px; letter-spacing:2;">STOCKHOLM</tspan><tspan x="7.4" y="26" style="font-family:'Lato-Light'; font-size:22px; letter-spacing:2;">FURNITURE</tspan></text>
	<g id="Icon_7_">
		<polyline class="st3" points="540,905 555,890 570,905 		"/>
		<polyline class="st3" points="555,905 565,895 575,905 		"/>
		<line class="st3" x1="550" y1="895" x2="570" y2="900"/>
	</g>
</g>
<g id="Stockholm_x5F_22">
	<polyline class="st4" points="285,965 285,975 220,975 	"/>
	<rect x="40" y="970" class="st13" width="280" height="10"/>
	<text transform="matrix(1 0 0 1 152.3223 976.2598)" class="st14" style="font-size:6px; letter-spacing:3;">SINCE 1985</text>
	<polyline class="st4" points="140,975 75,975 75,965 	"/>
	<rect x="45" y="935" class="st13" width="270" height="30"/>
	<text transform="matrix(1 0 0 1 88.7666 953.46)" style="font-family:'Lato-Black'; font-size:26px; letter-spacing:5;">STOCKHOLM</text>
	<polyline class="st4" points="240,915 285,915 285,925 	"/>
	<rect x="130" y="910" class="st13" width="100" height="10"/>
	<text transform="matrix(1 0 0 1 137.1123 916.2598)" class="st14" style="font-size:6px; letter-spacing:3;">INTERIOR DESIGN</text>
	<polyline class="st4" points="75,925 75,915 120,915 	"/>
</g>
<g id="Stockholm_x5F_21">
	<rect x="-305" y="975" class="st13" width="210" height="20"/>
	<text transform="matrix(1 0 0 1 -233.4463 979.2588)" style="font-family:'Lato-Regular'; font-size:6px; letter-spacing:1;">FURNITURE DESIGN</text>
	<rect x="-350" y="940" class="st13" width="300" height="20"/>
	<text transform="matrix(1 0 0 1 -274.6152 957.0391)" style="font-family:'Lato-Light'; font-size:24px; letter-spacing:2;">STOCKHOLM</text>
	<g>
		<circle class="st5" cx="-200" cy="895" r="20"/>
		<g>
			<defs>
				<circle id="SVGID_1_" cx="-200" cy="895" r="20"/>
			</defs>
			<clipPath id="SVGID_2_">
				<use xlink:href="#SVGID_1_"  style="overflow:visible;"/>
			</clipPath>
			<line class="st6" x1="-200" y1="915" x2="-200" y2="875"/>
			<line class="st6" x1="-205" y1="915" x2="-205" y2="875"/>
			<line class="st6" x1="-210" y1="915" x2="-210" y2="875"/>
			<line class="st6" x1="-215" y1="915" x2="-215" y2="875"/>
			<line class="st6" x1="-200" y1="910" x2="-180" y2="910"/>
			<line class="st6" x1="-200" y1="905" x2="-180" y2="905"/>
			<line class="st6" x1="-200" y1="900" x2="-180" y2="900"/>
			<line class="st6" x1="-200" y1="895" x2="-180" y2="895"/>
			<line class="st6" x1="-200" y1="890" x2="-180" y2="890"/>
			<line class="st6" x1="-200" y1="885" x2="-180" y2="885"/>
			<line class="st6" x1="-200" y1="880" x2="-180" y2="880"/>
		</g>
	</g>
</g>
<g id="Stockholm_x5F_20">
	<path id="SVGID_x5F_3_x5F_" class="st13" d="M1180,560c0,24.9,63.8,45,142.5,45s142.5-20.1,142.5-45"/>
	<text>	<textPath  xlink:href="#SVGID_x5F_3_x5F_" startOffset="0%">
<tspan  class="st14" style="font-size:9.6px; letter-spacing:500;">SINCE 1985</tspan>	</textPath>
</text>
	<rect x="1200" y="535" class="st7" width="240" height="40"/>
	<rect x="1400" y="550" class="st13" width="55" height="10"/>
	<text transform="matrix(1 0 0 1 1400 557.6797)" class="st14" style="font-size:8px; letter-spacing:1;">HEJA</text>
	<rect x="1225" y="545" class="st13" width="190" height="30"/>
	<text transform="matrix(1 0 0 1 1264.585 562.04)" style="font-family:'Montserrat-Bold'; font-size:24px; letter-spacing:-2;">STOCKHOLM</text>
	<rect x="1185" y="550" class="st13" width="55" height="10"/>
	<text transform="matrix(1 0 0 1 1218.1924 557.6797)" class="st14" style="font-size:8px; letter-spacing:1;">HEJA</text>
	<path id="SVGID_x5F_4_x5F_" class="st13" d="M1180,555c0-24.9,63.8-45,142.5-45s142.5,20.1,142.5,45"/>
	<text>	<textPath  xlink:href="#SVGID_x5F_4_x5F_" startOffset="0%">
<tspan  class="st14" style="font-size:9.6px; letter-spacing:500;">FURNITURE SHOP</tspan>	</textPath>
</text>
</g>
<g id="Stockholm_x5F_19">
	<g id="Icon_6_">
		<path class="st8" d="M1030,556.6c0,0-25,10-28.2-16.6"/>
		<polyline class="st9" points="1008.1,555.3 995.6,570.9 1020.6,558.4 1030,570.9 1026.9,558.4 		"/>
		<path class="st9" d="M1023.7,558.4"/>
		<path class="st9" d="M1023.7,558.4"/>
	</g>
	<line class="st10" x1="985" y1="535" x2="985" y2="575"/>
	<rect x="777.5" y="565" class="st13" width="197.5" height="10"/>
	<text transform="matrix(1 0 0 1 914.4248 571.2598)" class="st14" style="font-size:6px; letter-spacing:1;">INTERIOR DESIGN</text>
	<rect x="777.5" y="540" class="st13" width="197.5" height="30"/>
	<text transform="matrix(1 0 0 1 864.1699 557.04)" style="font-family:'Montserrat-Bold'; font-size:24px; letter-spacing:-2;">STOCKHOLM</text>
</g>
<g id="Stockholm_x5F_18">
	<rect x="540" y="575" class="st13" width="140" height="15"/>
	<text transform="matrix(1 0 0 1 540 581.2598)" class="st14" style="font-size:6px; letter-spacing:3;">INTERIOR DESIGN</text>
	<rect x="540" y="530" class="st13" width="160" height="40"/>
	<text transform="matrix(1 0 0 1 540 544.2002)"><tspan x="0" y="0" class="st15" style="font-family:'Montserrat-Bold';">HEJA</tspan><tspan x="0" y="20" class="st15" style="font-family:'Montserrat-Bold';">STOCKHOLM!</tspan></text>
	<g id="Icon_5_">
		<line class="st1" x1="530" y1="525" x2="530" y2="595"/>
		<rect x="490" y="525" class="st11" width="40" height="25"/>
		<line class="st11" x1="500" y1="525" x2="490" y2="535"/>
		<line class="st11" x1="510" y1="525" x2="490" y2="545"/>
		<line class="st11" x1="520" y1="525" x2="495" y2="550"/>
		<line class="st11" x1="500" y1="545" x2="505" y2="550"/>
		<line class="st11" x1="505" y1="540" x2="515" y2="550"/>
		<line class="st11" x1="510" y1="535" x2="525" y2="550"/>
		<line class="st11" x1="515" y1="530" x2="530" y2="545"/>
		<line class="st11" x1="520" y1="525" x2="530" y2="535"/>
	</g>
</g>
<g id="Stockholm_x5F_17">
	<line class="st1" x1="155" y1="540" x2="265" y2="540"/>
	<rect x="135" y="555" class="st13" width="150" height="10"/>
	<text transform="matrix(1 0 0 1 170.9102 562.0996)" class="st14" style="font-size:10px; letter-spacing:3;">STOCKHOLM</text>
	<line class="st1" x1="155" y1="580" x2="265" y2="580"/>
	<rect x="75" y="530" class="st12" width="60" height="60"/>
	<rect x="75" y="545" class="st13" width="60" height="45"/>
	
		<text transform="matrix(1 0 0 1 89.1104 568.8799)" class="st0" style="font-family:'Montserrat-Bold'; font-size:28px; letter-spacing:2;">SK</text>
</g>
<g id="Stockholm_x5F_16">
	<path class="st11" d="M-270,490v70c0,38.7,31.3,70,70,70s70-31.3,70-70v-70H-270z"/>
	<rect x="-285" y="535" class="st0" width="25" height="50"/>
	<rect x="-140" y="535" class="st0" width="25" height="50"/>
	<rect x="-340" y="595" class="st13" width="280" height="10"/>
	<text transform="matrix(1 0 0 1 -226.2285 601.2598)" class="st14" style="font-size:6px; letter-spacing:3;">FURNITURE</text>
	<rect x="-300" y="540" class="st11" width="200" height="40"/>
	<rect x="-340" y="550" class="st13" width="280" height="30"/>
	<text transform="matrix(1 0 0 1 -255.9609 564.7803)" class="st14" style="font-size:18px; letter-spacing:1;">STOCKHOLM</text>
	<g id="Icon_4_">
		<line class="st11" x1="-220" y1="520" x2="-220" y2="525"/>
		<line class="st11" x1="-180" y1="520" x2="-180" y2="525"/>
		<rect x="-225" y="515" class="st11" width="50" height="5"/>
		<line class="st11" x1="-200" y1="505" x2="-200" y2="515"/>
		<polyline class="st11" points="-220,515 -220,505 -180,505 -180,515 		"/>
	</g>
</g>
<g id="Stockholm_x5F_15">
	<rect x="1215" y="200" class="st13" width="210" height="20"/>
	<text transform="matrix(1 0 0 1 1269.0283 205.6797)" style="font-family:'Lato-Regular'; font-size:8px; letter-spacing:8;">FURNITURE</text>
	<rect x="1170" y="170" class="st13" width="300" height="20"/>
	<text transform="matrix(1 0 0 1 1211.3291 187.04)" style="font-family:'Lato-Light'; font-size:24px; letter-spacing:2;">HEJA STOCKHOLM</text>
	<g id="Icon_3_">
		<polygon class="st5" points="1320,145 1328,125 1312,125 		"/>
		<polygon class="st5" points="1320,155 1330,130 1310,130 		"/>
	</g>
</g>
<g id="Stockholm_x5F_14">
	<rect x="800" y="205" class="st13" width="280" height="20"/>
	<text transform="matrix(1 0 0 1 833.5205 214.0996)" class="st14" style="font-size:10px; letter-spacing:10;">INTERIOR DESIGN</text>
	<rect x="900" y="155" class="st1" width="180" height="40"/>
	<rect x="900" y="165" class="st13" width="180" height="30"/>
	<text transform="matrix(1 0 0 1 924.9854 182.04)" class="st14" style="font-size:24px;">STOCKHOLM</text>
	<rect x="800" y="155" class="st12" width="100" height="40"/>
	<rect x="800" y="165" class="st13" width="100" height="30"/>
	<text transform="matrix(1 0 0 1 824.4883 182.04)" class="st0 st14" style="font-size:24px;">HEJA</text>
</g>
<g id="Stockholm_x5F_13">
	<rect x="420" y="215" class="st13" width="280" height="10"/>
	<text transform="matrix(1 0 0 1 517.1123 221.2598)" class="st14" style="font-size:6px; letter-spacing:3;">INTERIOR DESIGN</text>
	<line class="st1" x1="550" y1="205" x2="570" y2="205"/>
	<rect x="420" y="165" class="st13" width="280" height="30"/>
	<text transform="matrix(1 0 0 1 462.4775 190.5596)" style="font-family:'Montserrat-Bold'; font-size:36px;">STOCKHOLM</text>
	<rect x="530" y="130" class="st1" width="60" height="20"/>
	<rect x="420" y="135" class="st13" width="280" height="10"/>
	<text transform="matrix(1 0 0 1 545.4961 142.6797)" class="st14 st16" style="font-size:8px;">HEJA</text>
</g>
<g id="Stockholm_x5F_12">
	<g>
		<path d="M245,95v150H115V95H245 M247,93h-2H115h-2v2v150v2h2h130h2v-2V95V93L247,93z"/>
	</g>
	<rect x="105" y="195" class="st0" width="20" height="50"/>
	<rect x="235" y="195" class="st0" width="20" height="50"/>
	<rect x="40" y="215" class="st13" width="330" height="25"/>
	<text transform="matrix(1 0 0 1 116.4111 229.2002)" class="st14 st15 st16">Web Developer</text>
	<rect x="32.5" y="120" class="st13" width="280" height="60"/>
	<text transform="matrix(1 0 0 1 135.2402 171.1191)" class="st14 st17">SK</text>
</g>
<g id="Stockholm_x5F_11">
	<rect x="-305" y="150" class="st1" width="210" height="60"/>
	<rect x="-305" y="150" class="st1" width="60" height="60"/>
	<line class="st1" x1="-195" y1="180" x2="-145" y2="180"/>
	<rect x="-245" y="160" class="st13" width="150" height="50"/>
	<text transform="matrix(1 0 0 1 -191.8076 171.3594)"><tspan x="0" y="0" style="font-family:'Montserrat-Bold'; font-size:16px; letter-spacing:3;">HEJA</tspan><tspan x="-37.6" y="28" style="font-family:'Montserrat-Bold'; font-size:16px; letter-spacing:3;"> STOCKHOLM</tspan></text>
	<rect x="-300" y="175" class="st13" width="20" height="10"/>
	<text transform="matrix(1 0 0 1 -293.2598 183.0996)" style="font-family:'Lato-Regular'; font-size:10px;">H</text>
	<rect x="-285" y="160" class="st13" width="20" height="10"/>
	<text transform="matrix(1 0 0 1 -277.46 168.0996)" style="font-family:'Lato-Regular'; font-size:10px;">E</text>
	<rect x="-285" y="190" class="st13" width="20" height="10"/>
	<text transform="matrix(1 0 0 1 -278.0596 198.0996)" style="font-family:'Lato-Regular'; font-size:10px;">A</text>
	<rect x="-270" y="175" class="st13" width="20" height="10"/>
	<text transform="matrix(1 0 0 1 -261.8496 183.0996)" style="font-family:'Lato-Regular'; font-size:10px;">J</text>
	<line class="st18" x1="-290" y1="165" x2="-260" y2="195"/>
	<line class="st18" x1="-290" y1="195" x2="-260" y2="165"/>
</g>
<g id="Stockholm_x5F_10">
	<rect x="1240" y="-125" class="st13" width="160" height="15"/>
	<text transform="matrix(1 0 0 1 1277.1123 -118.7402)" class="st14" style="font-size:6px; letter-spacing:3;">INTERIOR DESIGN</text>
	<line class="st1" x1="1295" y1="-140" x2="1345" y2="-140"/>
	<rect x="1235" y="-205" class="st13" width="170" height="55"/>
	<text transform="matrix(1 0 0 1 1294.4883 -187.96)"><tspan x="0" y="0" style="font-family:'Montserrat-Bold'; font-size:24px;">HEJA</tspan><tspan x="-42.3" y="28.8" style="font-family:'Montserrat-Bold'; font-size:24px;">STOCKHOLM!</tspan></text>
	<rect x="1280" y="-270" class="st13" width="40" height="19"/>
	<text transform="matrix(1 0 0 1 1294.5234 -253.8721)" style="font-family:'Lato-Light'; font-size:16.8px;">H</text>
	<rect x="1320" y="-270" class="st13" width="40" height="19"/>
	<text transform="matrix(1 0 0 1 1336.8916 -253.8721)" style="font-family:'Lato-Light'; font-size:16.8px;">J</text>
	<rect x="1295" y="-295" class="st13" width="50" height="20"/>
	<text transform="matrix(1 0 0 1 1315.8672 -278.8721)" style="font-family:'Lato-Light'; font-size:16.8px;">E</text>
	<rect x="1295" y="-245" class="st13" width="50" height="20"/>
	<text transform="matrix(1 0 0 1 1314.8594 -228.8721)" style="font-family:'Lato-Light'; font-size:16.8px;">A</text>
	<line class="st1" x1="1295" y1="-285" x2="1345" y2="-235"/>
	<line class="st1" x1="1295" y1="-235" x2="1345" y2="-285"/>
</g>
<g id="Stockholm_x5F_09">
	<rect x="915" y="-175" class="st13" width="140" height="15"/>
	<text transform="matrix(1 0 0 1 915 -168.7402)" class="st14" style="font-size:6px; letter-spacing:3;">INTERIOR DESIGN</text>
	<rect x="915" y="-235" class="st13" width="170" height="55"/>
	<text transform="matrix(1 0 0 1 915 -217.96)"><tspan x="0" y="0" style="font-family:'Montserrat-Bold'; font-size:24px;">HEJA</tspan><tspan x="0" y="28.8" style="font-family:'Montserrat-Bold'; font-size:24px;">STOCKHOLM!</tspan></text>
	<rect x="815" y="-240" class="st1" width="80" height="80"/>
	<rect x="815" y="-210" class="st13" width="40" height="19"/>
	<text transform="matrix(1 0 0 1 829.5234 -193.8721)" style="font-family:'Lato-Light'; font-size:16.8px;">H</text>
	<rect x="855" y="-210" class="st13" width="40" height="19"/>
	<text transform="matrix(1 0 0 1 871.8916 -193.8721)" style="font-family:'Lato-Light'; font-size:16.8px;">J</text>
	<rect x="830" y="-235" class="st13" width="50" height="20"/>
	<text transform="matrix(1 0 0 1 850.8672 -218.8721)" style="font-family:'Lato-Light'; font-size:16.8px;">E</text>
	<rect x="830" y="-185" class="st13" width="50" height="20"/>
	<text transform="matrix(1 0 0 1 849.8594 -168.8721)" style="font-family:'Lato-Light'; font-size:16.8px;">A</text>
	<line class="st1" x1="830" y1="-225" x2="880" y2="-175"/>
	<line class="st1" x1="830" y1="-175" x2="880" y2="-225"/>
</g>
<g id="Stockholm_x5F_08">
	<line class="st1" x1="700" y1="-170" x2="620" y2="-170"/>
	<rect x="420" y="-175" class="st13" width="280" height="10"/>
	<text transform="matrix(1 0 0 1 517.1123 -168.7402)" class="st14" style="font-size:6px; letter-spacing:3;">INTERIOR DESIGN</text>
	<line class="st1" x1="500" y1="-170" x2="420" y2="-170"/>
	<rect x="420" y="-215" class="st13" width="280" height="30"/>
	<text transform="matrix(1 0 0 1 462.4775 -189.4404)" style="font-family:'Montserrat-Bold'; font-size:36px;">STOCKHOLM</text>
	<line class="st1" x1="585" y1="-230" x2="700" y2="-230"/>
	<rect x="420" y="-235" class="st13" width="280" height="10"/>
	<text transform="matrix(1 0 0 1 549.3438 -228.7402)" class="st14" style="font-size:6px; letter-spacing:3;">1985</text>
	<line class="st1" x1="420" y1="-230" x2="535" y2="-230"/>
</g>
<g id="Stockholm_x5F_07">
	<rect x="80" y="-245" class="st1" width="200" height="85"/>
	<rect x="145" y="-175" class="st0" width="70" height="30"/>
	<g id="Icon_2_">
		<line class="st11" x1="160" y1="-155" x2="160" y2="-150"/>
		<line class="st11" x1="200" y1="-155" x2="200" y2="-150"/>
		<rect x="155" y="-160" class="st11" width="50" height="5"/>
		<line class="st11" x1="180" y1="-170" x2="180" y2="-160"/>
		<polyline class="st11" points="160,-160 160,-170 200,-170 200,-160 		"/>
	</g>
	<rect x="40" y="-190" class="st13" width="280" height="10"/>
	<text transform="matrix(1 0 0 1 137.1123 -183.7402)" class="st14" style="font-size:6px; letter-spacing:3;">INTERIOR DESIGN</text>
	<line class="st11" x1="170" y1="-200" x2="190" y2="-200"/>
	<rect x="40" y="-230" class="st13" width="280" height="25"/>
	<text transform="matrix(1 0 0 1 109.5674 -211.54)" style="font-family:'Montserrat-Bold'; font-size:26px;">STOCKHOLM</text>
</g>
<g id="Stockholm_x5F_06">
	<circle class="st11" cx="-200" cy="-200" r="80"/>
	<rect x="-290" y="-220" class="st0" width="25" height="40"/>
	<rect x="-130" y="-220" class="st0" width="25" height="40"/>
	<rect x="-340" y="-175" class="st13" width="280" height="10"/>
	<text transform="matrix(1 0 0 1 -242.8877 -168.7402)" class="st14" style="font-size:6px; letter-spacing:3;">INTERIOR DESIGN</text>
	<rect x="-340" y="-210" class="st13" width="280" height="30"/>
	<text transform="matrix(1 0 0 1 -284.2148 -192.96)" class="st16" style="font-family:'Montserrat-Bold'; font-size:24px;">STOCKHOLM</text>
	<g id="Icon_1_">
		<line class="st19" x1="-222.5" y1="-245" x2="-177.5" y2="-245"/>
		<polyline class="st19" points="-182,-230 -185,-245 -188,-230 		"/>
		<polyline class="st19" points="-212,-230 -215,-245 -218,-230 		"/>
		<polyline class="st19" points="-226.2,-230 -228.1,-239.5 -230,-230 		"/>
		<path class="st19" d="M-232.6-245c0,0,2.3,7.8,10.1,5.5"/>
		<polyline class="st19" points="-173.8,-230 -171.9,-239.5 -170,-230 		"/>
		<path class="st19" d="M-167.4-245c0,0-2.3,7.8-10.1,5.5"/>
	</g>
</g>
<g id="Stockholm_x5F_05">
	<rect x="1175" y="-590" class="st13" width="280" height="35"/>
	<text transform="matrix(1 0 0 1 1230.1846 -563.0205)" style="font-family:'NexaRustScriptL-0'; font-size:38px;">Stockholm</text>
	<rect x="1195" y="-560" class="st13" width="280" height="10"/>
	<text transform="matrix(1 0 0 1 1292.1123 -553.7402)" class="st14" style="font-size:6px; letter-spacing:3;">INTERIOR DESIGN</text>
</g>
<g id="Stockholm_x5F_04">
	<rect x="800" y="-555" class="st13" width="280" height="10"/>
	<text transform="matrix(1 0 0 1 868.8223 -548.7402)" class="st14" style="font-size:6px; letter-spacing:6;">INTERION DESIGN</text>
	<line class="st1" x1="855" y1="-560" x2="1025" y2="-560"/>
	<rect x="800" y="-590" class="st13" width="280" height="30"/>
	<text transform="matrix(1 0 0 1 870.7305 -568.7002)" style="font-family:'Montserrat-Bold'; font-size:30px; letter-spacing:-3;">STOCKHOLM</text>
	<rect x="915" y="-655" class="st18" width="50" height="50"/>
	<rect x="946.2" y="-636.2" class="st13" width="18.8" height="18.8"/>
	<text transform="matrix(1 0 0 1 946.248 -623.9639)" style="font-family:'NexaLight'; font-size:17.3077px;">H</text>
	<line class="st18" x1="940" y1="-617.5" x2="940" y2="-642.5"/>
	<rect x="915" y="-636.2" class="st13" width="18.8" height="18.8"/>
	<text transform="matrix(1 0 0 1 925.2158 -623.9639)" style="font-family:'NexaLight'; font-size:17.3077px;">S</text>
</g>
<g id="Stockholm_x5F_03">
	<rect x="420" y="-595" class="st13" width="280" height="35"/>
	<text transform="matrix(1 0 0 1 479.6484 -569.4404)" style="font-family:'Pacifico'; font-size:36px;">Stockholm</text>
	<rect x="420" y="-550" class="st13" width="280" height="10"/>
	<text transform="matrix(1 0 0 1 516.752 -543.7402)" class="st14" style="font-size:6px; letter-spacing:3;">INTERION DESIGN</text>
</g>
<g id="Stockholm_x5F_02">
	<line class="st4" x1="105" y1="-545" x2="70" y2="-545"/>
	<line class="st4" x1="290" y1="-545" x2="255" y2="-545"/>
	<rect x="40" y="-580" class="st13" width="280" height="30"/>
	<text transform="matrix(1 0 0 1 72.626 -562.96)" class="st14" style="font-size:24px; letter-spacing:1;"> HEJA STOCKHOLM!</text>
	<rect x="40" y="-550" class="st13" width="280" height="15"/>
	<text transform="matrix(1 0 0 1 122.8164 -542.3203)" class="st14 st16" style="font-size:8px;">INTERIOR DESIGN</text>
	<g id="Icon">
		<path class="st20" d="M155-620.6c0,0,35.9,14.3,40.4-23.8"/>
		<polyline class="st21" points="186.5,-622.5 204.4,-600 168.5,-618 155,-600 159.5,-618 		"/>
		<path class="st21" d="M164-618"/>
		<path class="st21" d="M164-618"/>
	</g>
</g>
<g id="Stockholm_x5F_01">
	<polyline class="st18" points="-260,-555 -340,-555 -340,-595 -60,-595 -60,-555 -140,-555 	"/>
	<rect x="-340" y="-585" class="st13" width="280" height="30"/>
	<text transform="matrix(1 0 0 1 -265.0146 -567.96)" style="font-family:'Montserrat-Bold'; font-size:24px;">STOCKHOLM</text>
	<rect x="-340" y="-560" class="st13" width="280" height="10"/>
	<text transform="matrix(1 0 0 1 -242.8877 -553.7402)" class="st14" style="font-size:6px; letter-spacing:3;">INTERIOR DESIGN</text>
</g>
</svg>
